<?xml version="1.0" encoding="UTF-8" standalone="no"?>
<!DOCTYPE svg PUBLIC "-//W3C//DTD SVG 1.1//EN" "http://www.w3.org/Graphics/SVG/1.1/DTD/svg11.dtd">
<svg width="100%" height="100%" viewBox="0 0 1150 1144" version="1.1" xmlns="http://www.w3.org/2000/svg" xmlns:xlink="http://www.w3.org/1999/xlink" xml:space="preserve" xmlns:serif="http://www.serif.com/" style="fill-rule:evenodd;clip-rule:evenodd;stroke-linejoin:round;stroke-miterlimit:2;">
    <g transform="matrix(1.219299,0,0,1.219299,-1564.071228,-940.175005)">
        <circle cx="1753.937" cy="1240.157" r="469.079" style="fill:rgb(52,121,99);"/>
    </g>
    <g transform="matrix(1,0,0,1,-1061.652773,-579.621405)">
        <g transform="matrix(0.707107,0.707107,-0.707107,0.707107,1016.944174,-1073.602302)">
            <g transform="matrix(-1,0,0,1,3525.030345,0)">
                <circle cx="1513.748" cy="1135.586" r="331.689" style="fill:rgb(207,207,207);"/>
            </g>
            <g transform="matrix(-1,0,0,1,3525.030345,0)">
                <path d="M1182.059,1135.586L1182.059,1467.275L1513.748,1467.275L1182.059,1135.586Z" style="fill:rgb(207,207,207);"/>
            </g>
            <g transform="matrix(1,0,0,-1,497.533535,2271.171143)">
                <path d="M1182.059,1135.586L1182.059,1467.275L1513.748,1467.275L1182.059,1135.586Z" style="fill:rgb(207,207,207);"/>
            </g>
        </g>
        <g transform="matrix(0.866025,0.5,-0.5,0.866025,583.533154,-853.501351)">
            <g transform="matrix(-1,0,0,1,3525.030345,0)">
                <circle cx="1513.748" cy="1135.586" r="331.689" style="fill:rgb(218,218,218);"/>
            </g>
            <g transform="matrix(-1,0,0,1,3525.030345,0)">
                <path d="M1182.059,1135.586L1182.059,1467.275L1513.748,1467.275L1182.059,1135.586Z" style="fill:rgb(218,218,218);"/>
            </g>
            <g transform="matrix(1,0,0,-1,497.533535,2271.171143)">
                <path d="M1182.059,1135.586L1182.059,1467.275L1513.748,1467.275L1182.059,1135.586Z" style="fill:rgb(218,218,218);"/>
            </g>
        </g>
        <g transform="matrix(0.866025,-0.5,0.5,0.866025,-363.988954,909.013821)">
            <circle cx="1513.748" cy="1135.586" r="331.689" style="fill:rgb(235,235,235);"/>
            <path d="M1182.059,1135.586L1182.059,1467.275L1513.748,1467.275L1182.059,1135.586Z" style="fill:rgb(235,235,235);"/>
            <g transform="matrix(-1,0,-0,-1,3027.49681,2271.171143)">
                <path d="M1182.059,1135.586L1182.059,1467.275L1513.748,1467.275L1182.059,1135.586Z" style="fill:rgb(235,235,235);"/>
            </g>
        </g>
    </g>
</svg>
