<?xml version="1.0" encoding="UTF-8" standalone="no"?>
<!DOCTYPE svg PUBLIC "-//W3C//DTD SVG 1.1//EN" "http://www.w3.org/Graphics/SVG/1.1/DTD/svg11.dtd">
<svg width="100%" height="100%" viewBox="0 0 1150 1144" version="1.1" xmlns="http://www.w3.org/2000/svg" xmlns:xlink="http://www.w3.org/1999/xlink" xml:space="preserve" xmlns:serif="http://www.serif.com/" style="fill-rule:evenodd;clip-rule:evenodd;stroke-linecap:round;stroke-linejoin:round;stroke-miterlimit:1.5;">
    <path d="M1093.302,312.548L1093.302,831.348C1093.302,974.514 977.069,1090.748 833.902,1090.748L315.102,1090.748C171.936,1090.748 55.702,974.514 55.702,831.348L55.702,312.548C55.702,169.381 171.936,53.148 315.102,53.148L833.902,53.148C977.069,53.148 1093.302,169.381 1093.302,312.548Z" style="fill:rgb(38,38,38);stroke:rgb(38,38,38);stroke-width:108.33px;"/>
    <g transform="matrix(1,0,0,1,-1061.652773,-579.621405)">
        <g transform="matrix(0.707107,0.707107,-0.707107,0.707107,1016.944174,-1023.881522)">
            <g transform="matrix(-1,0,0,1,3525.030345,0)">
                <circle cx="1513.748" cy="1135.586" r="331.689" style="fill:rgb(255,217,74);"/>
            </g>
            <g transform="matrix(-1,0,0,1,3525.030345,0)">
                <path d="M1182.059,1135.586L1182.059,1467.275L1513.748,1467.275L1182.059,1135.586Z" style="fill:rgb(255,217,74);"/>
            </g>
            <g transform="matrix(1,0,0,-1,497.533535,2271.171143)">
                <path d="M1182.059,1135.586L1182.059,1467.275L1513.748,1467.275L1182.059,1135.586Z" style="fill:rgb(255,217,74);"/>
            </g>
        </g>
        <g transform="matrix(0.866025,0.5,-0.5,0.866025,583.533154,-853.501351)">
            <g transform="matrix(-1,0,0,1,3525.030345,0)">
                <circle cx="1513.748" cy="1135.586" r="331.689" style="fill:rgb(218,218,218);stroke:rgb(38,38,38);stroke-width:108.33px;"/>
            </g>
            <g transform="matrix(-1,0,0,1,3525.030345,0)">
                <path d="M1182.059,1135.586L1182.059,1467.275L1513.748,1467.275L1182.059,1135.586Z" style="fill:rgb(218,218,218);stroke:rgb(38,38,38);stroke-width:108.33px;"/>
            </g>
            <g transform="matrix(1,0,0,-1,497.533535,2271.171143)">
                <path d="M1182.059,1135.586L1182.059,1467.275L1513.748,1467.275L1182.059,1135.586Z" style="fill:rgb(218,218,218);stroke:rgb(38,38,38);stroke-width:108.33px;"/>
            </g>
        </g>
        <g transform="matrix(0.866025,0.5,-0.5,0.866025,583.533154,-853.501351)">
            <g transform="matrix(-1,0,0,1,3525.030345,0)">
                <circle cx="1513.748" cy="1135.586" r="331.689" style="fill:rgb(218,218,218);"/>
            </g>
            <g transform="matrix(-1,0,0,1,3525.030345,0)">
                <path d="M1182.059,1135.586L1182.059,1467.275L1513.748,1467.275L1182.059,1135.586Z" style="fill:rgb(218,218,218);"/>
            </g>
            <g transform="matrix(1,0,0,-1,497.533535,2271.171143)">
                <path d="M1182.059,1135.586L1182.059,1467.275L1513.748,1467.275L1182.059,1135.586Z" style="fill:rgb(218,218,218);"/>
            </g>
        </g>
        <g transform="matrix(0.866025,-0.5,0.5,0.866025,-363.988954,909.013821)">
            <circle cx="1513.748" cy="1135.586" r="331.689" style="fill:rgb(235,235,235);stroke:rgb(38,38,38);stroke-width:108.33px;"/>
            <path d="M1182.059,1135.586L1182.059,1467.275L1513.748,1467.275L1182.059,1135.586Z" style="fill:rgb(235,235,235);stroke:rgb(38,38,38);stroke-width:108.33px;"/>
            <g transform="matrix(-1,0,-0,-1,3027.49681,2271.171143)">
                <path d="M1182.059,1135.586L1182.059,1467.275L1513.748,1467.275L1182.059,1135.586Z" style="fill:rgb(235,235,235);stroke:rgb(38,38,38);stroke-width:108.33px;"/>
            </g>
        </g>
        <g transform="matrix(0.866025,-0.5,0.5,0.866025,-363.988954,909.013821)">
            <circle cx="1513.748" cy="1135.586" r="331.689" style="fill:rgb(235,235,235);"/>
            <path d="M1182.059,1135.586L1182.059,1467.275L1513.748,1467.275L1182.059,1135.586Z" style="fill:rgb(235,235,235);"/>
            <g transform="matrix(-1,0,-0,-1,3027.49681,2271.171143)">
                <path d="M1182.059,1135.586L1182.059,1467.275L1513.748,1467.275L1182.059,1135.586Z" style="fill:rgb(235,235,235);"/>
            </g>
        </g>
    </g>
</svg>
